HIERARCHY
ROOT hip
{
  OFFSET 0 0 0
  CHANNELS 6 Xposition Yposition Zposition Zrotation Yrotation Xrotation
  JOINT abdomen
  {
    OFFSET 0 20.6881 -0.73152
    CHANNELS 3 Zrotation Xrotation Yrotation
    JOINT chest
    {
      OFFSET 0 11.7043 -0.48768
      CHANNELS 3 Zrotation Xrotation Yrotation
      JOINT neck
      {
        OFFSET 0 22.1894 -2.19456
        CHANNELS 3 Zrotation Xrotation Yrotation
        JOINT head
        {
          OFFSET -0.24384 7.07133 1.2192
          CHANNELS 3 Zrotation Xrotation Yrotation
          JOINT leftEye
          {
            OFFSET 4.14528 8.04674 8.04672
            CHANNELS 3 Zrotation Xrotation Yrotation
            End Site
            {
              OFFSET 1 0 0
            }
          }
          JOINT rightEye
          {
            OFFSET -3.6576 8.04674 8.04672
            CHANNELS 3 Zrotation Xrotation Yrotation
            End Site
            {
              OFFSET 1 0 0
            }
          }
        }
      }
      JOINT rCollar
      {
        OFFSET -2.68224 19.2634 -4.8768
        CHANNELS 3 Zrotation Xrotation Yrotation
        JOINT rShldr
        {
          OFFSET -8.77824 -1.95073 1.46304
          CHANNELS 3 Zrotation Xrotation Yrotation
          JOINT rForeArm
          {
            OFFSET -28.1742 -1.7115 0.48768
            CHANNELS 3 Zrotation Xrotation Yrotation
            JOINT rHand
            {
              OFFSET -22.5879 0.773209 7.07136
              CHANNELS 3 Zrotation Xrotation Yrotation
              JOINT rThumb1
              {
                OFFSET -1.2192 -0.487915 3.41376
                CHANNELS 3 Zrotation Xrotation Yrotation
                JOINT rThumb2
                {
                  OFFSET -3.37035 -0.52449 3.41376
                  CHANNELS 3 Zrotation Xrotation Yrotation
                  End Site
                  {
                    OFFSET -1.78271 -1.18214 1.43049
                  }
                }
              }
              JOINT rIndex1
              {
                OFFSET -7.75947 0.938293 5.60832
                CHANNELS 3 Zrotation Xrotation Yrotation
                JOINT rIndex2
                {
                  OFFSET -2.54057 -0.884171 1.56538
                  CHANNELS 3 Zrotation Xrotation Yrotation
                  End Site
                  {
                    OFFSET -1.62519 -0.234802 1.16502
                  }
                }
              }
              JOINT rMid1
              {
                OFFSET -8.24714 1.18213 3.41376
                CHANNELS 3 Zrotation Xrotation Yrotation
                JOINT rMid2
                {
                  OFFSET -3.10165 -0.590103 1.0647
                  CHANNELS 3 Zrotation Xrotation Yrotation
                  End Site
                  {
                    OFFSET -2.48547 -0.328903 0.83742
                  }
                }
              }
              JOINT rRing1
              {
                OFFSET -8.82822 0.546677 1.51678
                CHANNELS 3 Zrotation Xrotation Yrotation
                JOINT rRing2
                {
                  OFFSET -2.60934 -0.819778 -0.0198488
                  CHANNELS 3 Zrotation Xrotation Yrotation
                  End Site
                  {
                    OFFSET -2.33842 -0.294052 0.168128
                  }
                }
              }
              JOINT rPinky1
              {
                OFFSET -8.27202 -0.0477905 -0.4584
                CHANNELS 3 Zrotation Xrotation Yrotation
                JOINT rPinky2
                {
                  OFFSET -1.82734 -0.647385 -0.700984
                  CHANNELS 3 Zrotation Xrotation Yrotation
                  End Site
                  {
                    OFFSET -1.69225 -0.51767 -0.607171
                  }
                }
              }
            }
          }
        }
      }
      JOINT lCollar
      {
        OFFSET 2.68224 19.2634 -4.8768
        CHANNELS 3 Zrotation Xrotation Yrotation
        JOINT lShldr
        {
          OFFSET 8.77824 -1.95073 1.46304
          CHANNELS 3 Zrotation Xrotation Yrotation
          JOINT lForeArm
          {
            OFFSET 28.1742 -1.7115 0.48768
            CHANNELS 3 Zrotation Xrotation Yrotation
            JOINT lHand
            {
              OFFSET 22.5879 0.773209 7.07136
              CHANNELS 3 Zrotation Xrotation Yrotation
              JOINT lThumb1
              {
                OFFSET 1.2192 -0.487915 3.41376
                CHANNELS 3 Zrotation Xrotation Yrotation
                JOINT lThumb2
                {
                  OFFSET 3.37035 -0.52449 3.41376
                  CHANNELS 3 Zrotation Xrotation Yrotation
                  End Site
                  {
                    OFFSET 1.78271 -1.18214 1.43049
                  }
                }
              }
              JOINT lIndex1
              {
                OFFSET 7.75947 0.938293 5.60832
                CHANNELS 3 Zrotation Xrotation Yrotation
                JOINT lIndex2
                {
                  OFFSET 2.54057 -0.884171 1.56538
                  CHANNELS 3 Zrotation Xrotation Yrotation
                  End Site
                  {
                    OFFSET 1.62519 -0.234802 1.16502
                  }
                }
              }
              JOINT lMid1
              {
                OFFSET 8.24714 1.18213 3.41376
                CHANNELS 3 Zrotation Xrotation Yrotation
                JOINT lMid2
                {
                  OFFSET 3.10165 -0.590103 1.0647
                  CHANNELS 3 Zrotation Xrotation Yrotation
                  End Site
                  {
                    OFFSET 2.48547 -0.328903 0.83742
                  }
                }
              }
              JOINT lRing1
              {
                OFFSET 8.82822 0.546677 1.51678
                CHANNELS 3 Zrotation Xrotation Yrotation
                JOINT lRing2
                {
                  OFFSET 2.60934 -0.819778 -0.0198488
                  CHANNELS 3 Zrotation Xrotation Yrotation
                  End Site
                  {
                    OFFSET 2.33842 -0.294052 0.168128
                  }
                }
              }
              JOINT lPinky1
              {
                OFFSET 8.27202 -0.0477905 -0.4584
                CHANNELS 3 Zrotation Xrotation Yrotation
                JOINT lPinky2
                {
                  OFFSET 1.82734 -0.647385 -0.700984
                  CHANNELS 3 Zrotation Xrotation Yrotation
                  End Site
                  {
                    OFFSET 1.69225 -0.51767 -0.607171
                  }
                }
              }
            }
          }
        }
      }
    }
  }
  JOINT rButtock
  {
    OFFSET -8.77824 4.35084 1.2192
    CHANNELS 3 Zrotation Xrotation Yrotation
    JOINT rThigh
    {
      OFFSET 0 -1.70687 -2.19456
      CHANNELS 3 Zrotation Xrotation Yrotation
      JOINT rShin
      {
        OFFSET 0 -36.8199 0.73152
        CHANNELS 3 Zrotation Xrotation Yrotation
        JOINT rFoot
        {
          OFFSET 0.73152 -45.1104 -5.12064
          CHANNELS 3 Zrotation Xrotation Yrotation
          End Site
          {
            OFFSET -1.1221 -3.69964 12.103
          }
        }
      }
    }
  }
  JOINT lButtock
  {
    OFFSET 8.77824 4.35084 1.2192
    CHANNELS 3 Zrotation Xrotation Yrotation
    JOINT lThigh
    {
      OFFSET 0 -1.70687 -2.19456
      CHANNELS 3 Zrotation Xrotation Yrotation
      JOINT lShin
      {
        OFFSET 0 -36.8199 0.73152
        CHANNELS 3 Zrotation Xrotation Yrotation
        JOINT lFoot
        {
          OFFSET -0.73152 -45.1104 -5.12064
          CHANNELS 3 Zrotation Xrotation Yrotation
          End Site
          {
            OFFSET 1.1221 -3.69964 12.103
          }
        }
      }
    }
  }
}
MOTION
Frames:	7
Frame Time:	0.03333
0.0 0.0 0.0 0.0 0.0 0.0 0.0 0.0 0.0 0.0 0.0 0.0 0.0 0.0 0.0 0.0 0.0 0.0 0.0 0.0 0.0 0.0 0.0 0.0 0.0 0.0 0.0 0.0 0.0 0.0 0.0 0.0 0.0 0.0 0.0 0.0 0.0 0.0 0.0 0.0 0.0 0.0 0.0 0.0 0.0 0.0 0.0 0.0 0.0 0.0 0.0 0.0 0.0 0.0 0.0 0.0 0.0 0.0 0.0 0.0 0.0 0.0 0.0 0.0 0.0 0.0 0.0 0.0 0.0 0.0 0.0 0.0 0.0 0.0 0.0 0.0 0.0 0.0 0.0 0.0 0.0 0.0 0.0 0.0 0.0 0.0 0.0 0.0 0.0 0.0 0.0 0.0 0.0 0.0 0.0 0.0 0.0 0.0 0.0 0.0 0.0 0.0 0.0 0.0 0.0 0.0 0.0 0.0 0.0 0.0 0.0 0.0 0.0 0.0 0.0 0.0 0.0 0.0 0.0 0.0 0.0 0.0 0.0 0.0 0.0 0.0 0.0 0.0 0.0 0.0 0.0 0.0
0.39630000000000004 0.8333999999999999 -3.1514 -128.450642 45.782503 164.872233 159.741433 -54.929177 -167.252447 -134.202307 -7.157016 -10.969982 48.986413 -47.144042 -73.209218 90.375543 6.267867 -54.365342 137.996136 11.556848 -29.534249 2.391678 0.529061 24.94364 11.11404 -2.2221 -155.986051 -94.946059 24.486245 -84.999259 5.031704 0.562291 -177.212887 102.522171 -0.632169 171.401773 -0.68613 60.387386 44.153783 -93.232633 5.647468 -103.552763 141.423299 44.393152 -81.941908 -106.27579 63.279243 -100.454922 -18.472969 -26.839692 -117.276361 -140.749057 -30.084275 118.907971 169.441814 -66.521572 -83.016579 149.193965 43.923041 -46.964874 -26.858185 -50.610581 120.109374 159.433338 -19.889628 80.263638 -147.722625 -2.984723 11.023825 -131.955399 83.109893 11.170951 -107.136012 -7.964314 -4.90282 69.786796 -9.541555 -167.527332 22.521935 41.838697 88.802741 -51.831126 -49.352258 -122.794127 101.612938 24.858673 89.543836 54.600168 -60.556623 -126.249258 32.523271 -62.21075 -150.14672 -107.168167 77.144125 -24.977982 -78.933285 -6.911849 84.795233 -172.421763 -59.588365 45.160409 -103.144542 30.444655 -142.943013 118.448026 85.928032 -36.781028 106.509825 -71.977864 -49.150206 -145.170446 -45.565955 144.946144 154.516224 -4.918984 85.600396 -17.15121 -35.508228 77.370561 2.913616 0.970522 108.407225 87.293928 -15.687751 -0.0 165.943493 29.658594 108.645312 83.982823 54.584683 150.022318
0.6353 1.0634 -4.4926 -130.760572 42.721367 161.18923 166.805464 -58.084403 173.09106 -142.034468 -29.844435 -36.376591 43.726094 -34.123228 -97.32086 97.899326 20.699145 -56.36114 141.90924 11.005469 -31.185156 2.218764 0.426827 21.775547 -27.715989 59.670697 -149.65483 95.86605 -28.636075 -150.713727 -164.139723 10.317576 -2.072151 83.511333 -6.708427 139.050372 -26.485075 55.448626 58.927375 154.440869 33.910324 -162.650006 -32.741442 -9.657337 -160.259621 171.368744 -39.35546 -81.337861 -20.853494 -29.497164 -118.889583 -144.673569 -33.478512 116.796537 161.150103 -67.32742 -86.746842 -61.414212 15.675972 -139.524231 5.265442 -46.432642 136.653665 -2.93189 9.701237 149.607338 8.645732 10.799221 -173.011321 -90.197442 -17.314517 176.184189 3.297397 -62.520575 125.039473 97.352876 7.767137 118.876421 178.92341 -42.761874 165.915342 143.719744 74.492081 -176.181018 -57.201469 28.517225 156.908995 147.308252 72.859984 -17.856391 -107.675606 56.598056 -26.484467 103.414887 33.406309 55.556778 -89.460134 -6.398618 81.469151 -20.557711 48.269551 169.04731 -144.085107 38.338381 -109.425717 -131.209273 44.943312 -161.732861 -172.243361 7.82428 134.983877 158.345361 -37.226291 -180.0 169.467039 22.591228 91.791694 -21.796466 6.267644 12.843745 -93.31477 9.410099 -115.85616 -67.893505 -30.353729 -148.89699 -148.150737 32.109949 55.633464 64.85418 29.526492 156.169694
0.881 1.21 -5.81 -132.341281 38.683466 158.872647 176.660855 -54.552565 -2.801954 144.41279 40.682226 136.778313 64.101182 -30.339205 105.898271 -92.461379 -6.172352 143.735329 143.544864 10.804267 -32.043534 2.131284 0.376181 20.017522 -25.193737 64.42274 -149.588343 93.252983 -19.017669 -154.36315 41.231724 56.980401 129.352234 117.244295 21.059495 -109.282234 -8.610807 52.561238 37.22848 158.236966 24.934106 -169.546394 137.121458 48.955273 -75.452056 -55.423464 67.146691 -150.086706 91.838902 21.87008 -64.678891 -67.697504 38.440411 17.996221 -131.776745 4.084959 -4.34041 -0.776571 40.266192 110.940013 -78.701106 -49.539455 86.96092 122.863949 1.669074 107.894038 -143.971127 -18.014245 20.893304 -115.63452 19.369889 5.388267 148.184033 45.452994 113.289442 97.092874 -44.811773 -35.328537 -141.877839 -10.111029 -169.050059 146.486449 5.178637 166.335837 -56.586983 30.6454 158.522401 -76.290591 -81.731099 -134.759704 -165.449886 -75.771538 3.215602 -165.804915 -2.692013 -8.110046 -88.471003 -8.097997 81.640418 -11.661426 65.586233 165.503219 125.958525 -34.146001 -50.008632 -87.165201 -1.929801 -81.890995 83.667079 -48.763798 -94.77078 -145.77184 -61.855862 -161.410605 -167.584009 -26.853666 68.506803 85.267017 17.97267 -163.825466 7.301025 -13.400801 95.979421 115.407173 2.959093 -180.0 -138.258621 -19.406414 160.185405 -91.201409 -20.774505 -9.36545
1.1336000000000002 1.3071 -7.1403 -133.197578 34.761931 157.526417 -176.91052 -59.118597 162.36506 -168.271035 -47.516223 -78.602562 43.813169 -19.302451 -126.771744 112.482271 43.062084 -67.164866 144.140589 10.856787 -32.734096 2.097971 0.352508 19.073825 60.195669 -42.834319 -135.953182 -65.79753 21.969283 -152.313896 179.720771 -34.105758 -43.039255 92.562594 47.836558 -25.974365 7.135718 45.267089 20.157763 -45.625005 40.563933 -76.861492 111.612453 26.444503 -66.113881 8.912318 7.008685 177.349729 -85.465558 2.744414 -155.07149 -107.939172 82.613388 139.964928 -134.846978 -3.300201 -7.752166 6.023957 56.54283 106.892795 150.361497 19.184226 106.169101 41.510462 54.281963 -138.88815 10.981372 26.104924 -173.656823 -163.062515 85.155428 -103.655669 -0.59982 42.649463 122.63081 98.240569 11.24265 123.415371 -174.077634 -42.460295 171.769042 -21.40808 2.331833 81.583889 -166.466947 -20.878034 118.867212 5.48191 -11.837157 120.881563 8.934793 23.982518 -140.977913 -162.394189 15.628951 78.092061 77.432244 42.892627 104.467728 166.300278 -38.735319 -8.526437 -35.7471 -56.180979 -166.132988 -145.07628 49.021028 -3.103759 -154.719646 -15.969396 118.506356 175.553078 -32.793127 -8.171274 -152.643506 -12.154129 84.275239 81.091432 47.270487 -159.039601 -67.170443 -61.500437 -25.38614 -148.42243 20.941505 0.0 135.276847 -17.891239 52.215372 18.502821 -29.65358 -29.616403
1.3928 1.3734 -8.4963 -133.596209 31.488415 156.724089 -171.873909 -58.210777 146.323202 164.27916 -47.295088 -114.960346 61.170321 -21.710828 116.173941 -99.527732 9.380051 145.611134 144.292969 11.029041 -33.371131 2.098827 0.342936 18.557584 45.021692 -31.047639 -151.539125 -111.954345 43.686062 -116.334136 22.535038 2.134022 174.283252 117.044564 1.299188 -136.334756 1.754043 42.99002 21.576852 -6.208412 62.54841 -88.478474 -38.86992 -9.932472 -169.686643 118.78105 -57.139228 -129.190853 116.500705 45.00412 -70.25807 -47.313102 69.259433 -2.935704 79.463838 -2.157771 -170.653806 -86.202025 11.841208 -33.679761 -119.882944 -28.623864 70.295798 -167.127261 17.314395 93.924652 11.925881 32.486829 -173.654385 -90.47254 -8.40256 -174.652865 157.204608 53.454235 104.065597 91.127048 -47.710776 -45.095644 -161.326338 -34.573683 -178.207049 77.933402 -13.340102 150.020591 172.460986 -18.532192 106.311337 -176.225326 41.315041 119.28772 39.063827 -76.025602 -145.486756 -166.562473 -60.513739 -0.619681 95.966141 46.831351 95.894201 171.697428 -36.491996 -4.637911 -75.322357 -4.114727 -165.865032 -42.995244 10.692224 112.617259 111.797838 3.122852 -137.653453 157.935679 -66.622459 171.240171 -153.429648 13.722906 106.607385 -80.82742 -46.33637 -178.913904 -65.638816 -60.604418 -22.543574 -147.603942 18.569893 -110.944814 -169.192811 59.533967 93.404871 151.371356 5.170828 168.709025
1.6568 1.4194 -9.8795 -133.749582 28.983196 156.203021 -163.694506 -57.787203 -160.927511 -148.651193 -40.983204 -54.205684 41.223638 -27.960716 -45.656019 97.939243 -39.460714 -50.018807 144.282077 11.234096 -33.94949 2.117043 0.340136 18.252932 170.759389 -19.35055 -39.052156 106.196513 24.722792 66.184244 -106.264154 -64.019903 56.435656 54.411733 8.104322 95.298203 -33.256513 45.368407 46.471859 -45.121622 4.099847 -99.584499 131.628876 53.11013 -67.009953 -113.039048 67.480728 -100.724113 -100.20555 17.76978 -159.116393 -129.701062 -6.319503 177.116352 78.667021 -4.053285 -169.087037 -43.029825 58.157641 -53.317506 -134.830376 -16.318643 70.057901 137.921717 28.723475 136.103725 -74.061746 -67.581529 94.761662 76.16988 9.15062 117.999035 -107.621975 31.081456 -91.270054 67.155401 1.825189 -172.358387 -58.624699 65.519466 153.406025 -125.264159 -61.555754 -174.778608 -160.724515 -22.048333 124.020756 167.086948 17.22664 135.84136 -144.052933 -2.051303 5.539407 -30.262119 -75.102282 -138.036429 95.961284 47.916079 95.829026 -5.574941 -60.807301 -167.484878 -127.388154 34.662984 -127.181086 -99.461561 2.275331 152.548758 112.074476 1.938617 -137.523398 162.36401 -64.743662 -88.380908 158.448948 16.347498 -67.121191 81.421893 1.677596 -169.841583 -48.402376 -61.255965 -0.0 -160.315545 20.464684 134.342668 -117.638624 -22.752267 100.003113 48.327675 48.192497 41.255421
